<svg xmlns="http://www.w3.org/2000/svg" viewBox="0 0 300 300" width="300" height="300">
  <rect fill="white" width="300" height="300"/>
  <rect fill="black" x="20" y="20" width="60" height="60"/>
  <rect fill="white" x="30" y="30" width="40" height="40"/>
  <rect fill="black" x="40" y="40" width="20" height="20"/>
  <rect fill="black" x="220" y="20" width="60" height="60"/>
  <rect fill="white" x="230" y="30" width="40" height="40"/>
  <rect fill="black" x="240" y="40" width="20" height="20"/>
  <rect fill="black" x="20" y="220" width="60" height="60"/>
  <rect fill="white" x="30" y="230" width="40" height="40"/>
  <rect fill="black" x="40" y="240" width="20" height="20"/>
  <rect fill="black" x="100" y="20" width="20" height="20"/>
  <rect fill="white" x="110" y="20" width="20" height="20"/>
  <rect fill="black" x="120" y="20" width="20" height="20"/>
  <rect fill="black" x="160" y="20" width="20" height="20"/>
  <rect fill="black" x="20" y="100" width="20" height="20"/>
  <rect fill="white" x="20" y="110" width="20" height="20"/>
  <rect fill="black" x="20" y="120" width="20" height="20"/>
  <rect fill="black" x="100" y="100" width="100" height="100"/>
  <rect fill="white" x="110" y="110" width="80" height="80"/>
  <rect fill="black" x="120" y="120" width="60" height="60"/>
  <rect fill="white" x="130" y="130" width="40" height="40"/>
  <rect fill="black" x="140" y="140" width="20" height="20"/>
  <rect fill="black" x="220" y="100" width="20" height="20"/>
  <rect fill="white" x="230" y="100" width="20" height="20"/>
  <rect fill="black" x="240" y="100" width="20" height="20"/>
  <rect fill="black" x="100" y="220" width="20" height="20"/>
  <rect fill="white" x="110" y="220" width="20" height="20"/>
  <rect fill="black" x="120" y="220" width="20" height="20"/>
  <rect fill="black" x="160" y="220" width="20" height="20"/>
  <text x="150" y="280" text-anchor="middle" font-family="Arial" font-size="12" fill="black">QRIS PLACEHOLDER</text>
</svg>
